<svg width="26" height="26" viewBox="0 0 26 26" fill="none" xmlns="http://www.w3.org/2000/svg">
<path d="M13 -3.05176e-05L15.7835 3.52018L20.0283 2.06367L20.4668 6.52995L24.8252 7.59957L22.7794 11.5939L25.8677 14.8501L21.9872 17.1043L22.8247 21.5132L18.3415 21.3116L16.6625 25.4734L13 22.88L9.33748 25.4734L7.65847 21.3116L3.17526 21.5132L4.01284 17.1043L0.132321 14.8501L3.22056 11.5939L1.17478 7.59957L5.53319 6.52995L5.97167 2.06367L10.2165 3.52018L13 -3.05176e-05Z" fill="#2E77D0"/>
<path d="M11 15L8 13.5L11 17L17.5 8.99997L11 15Z" fill="white" stroke="white"/>
</svg>
